<?xml version="1.0" encoding="iso-8859-1"?>
<!-- Generator: Adobe Illustrator 19.0.0, SVG Export Plug-In . SVG Version: 6.00 Build 0)  -->
<svg version="1.1" xmlns="http://www.w3.org/2000/svg" xmlns:xlink="http://www.w3.org/1999/xlink" x="0px" y="0px"
	 viewBox="0 0 430 397.337" style="enable-background:new 0 0 430 397.337;" xml:space="preserve">
<g id="tiger-head-pattern-4">
	<path d="M163.967,369.558c0.593,2.086,1.186,4.171,1.78,6.257c2.561-3.108,5.122-6.215,7.683-9.323
		c0.497,0.998,0.995,1.996,1.492,2.995c3.94-8.404,10.471-15,18.284-19.996c24.291-6.407,75.303,1.042,82.527,26.121
		c2.705-1.976,24.042-11.989,26.747-13.965c1.255,2.91,2.511,5.82,3.766,8.73c2.995-2.705,5.989-5.409,8.984-8.114
		c7.422,7.172,12.998,16.238,16.053,26.096c51.422-23.775,83.813-83.176,75.949-139.279c3.718,3.055,7.436,6.111,11.153,9.167
		c19.199-26.668,4.67-92.897-5.516-104.504c5.711,1.261,11.421,2.522,17.132,3.783c-9.493-36.796-29.233-70.892-56.418-97.444
		c4.071,0.395,8.142,0.791,12.213,1.186c-14.476-23.08-113.845-58.26-172.833-38.673c-18.104-10.613-32.23-29.314-59.724-20.132
		c-4.991,1.667-7.596,7.034-9.752,11.833c-6.831,15.206-13.662,30.412-20.493,45.618c-6.635,4.558-13.372,8.996-19.946,13.569
		c-19.84,13.802-39.352,30.478-47.371,53.278c-6.02,17.116-4.853,35.536-4.403,53.841c-13.339,24.313-26.677,48.626-40.016,72.939
		c-6.49,11.83-13.199,24.892-10.737,38.159c15.596,12.022,16.49,19.781,21.717,24.368c4.452,13.044,15.475,23.82,28.459,29.25
		c3.298,13.789,9.491,26.891,18.23,38.059c4.156,5.31,11.056,10.635,16.99,7.433c0.946,1.839,1.892,3.678,2.838,5.517
		c2.154-1.428,4.309-2.855,6.463-4.283c1.518,1.49,3.036,2.979,4.554,4.469c-0.548-3.279,3.933-5.301,7.109-4.319
		c3.176,0.982,5.597,3.579,8.638,4.923C119.801,399.003,154.889,388.881,163.967,369.558z"/>
</g>
<g id="Layer_1">
</g>
</svg>
