<?xml version="1.0" encoding="iso-8859-1"?>
<!-- Generator: Adobe Illustrator 19.0.0, SVG Export Plug-In . SVG Version: 6.00 Build 0)  -->
<svg version="1.1" xmlns="http://www.w3.org/2000/svg" xmlns:xlink="http://www.w3.org/1999/xlink" x="0px" y="0px"
	 viewBox="0 0 430 409.444" style="enable-background:new 0 0 430 409.444;" xml:space="preserve">
<g id="tiger-head-pattern-3">
	<path d="M412.096,331.006c2.766-11.875,4.671-41-1.853-51.329c6.059-8.429,19.426-47.875,19.752-57.931
		c0.668-20.608-56.284-48.357-60.493-57.969c-25.331-57.854-35.128-67.357-51.627-82.702c0.484-1.445,0.96-2.894,1.373-4.354
		c6.006-21.199,6.184-44.019,0.509-65.309c-1.454-5.457-4.914-11.955-10.532-11.375c-4.725,0.487-7.174,5.681-9.24,9.958
		c-7.602,15.737-21.013,27.205-35.871,36.881c-30.782-12.476-73.879-20.632-125.12-6.384c-14.16-6.256-29.285-14.034-35.367-17.348
		c-10.7-5.831-24.135-9.987-34.729-3.967c-5.055,2.873-8.702,7.711-11.559,12.775c-9.557,16.94-11.26,36.95-7.494,56.198
		C22.155,115.29,4.349,151.227,1.926,188.232c3.829-3.583,7.659-7.165,11.489-10.748c-13.912,28.816-17.148,61.786-9.032,92.038
		c3.59-5.587,7.18-11.175,10.77-16.762c0.498,18.999,3.556,37.891,9.082,56.097c5.831-4.521,9.654-11.215,10.38-18.171
		c1.904,36.88,20.697,72.433,50.796,96.095c-0.409-7.863-0.817-15.727-1.226-23.591c6.515,18.911,20.188,35.508,38.106,46.254
		c0.876-15.188,1.751-30.376,2.627-45.564c14.85,14.373,33.502,25.341,53.932,31.715c-7.193-8.533-9.028-20.737-4.658-30.982
		c6.302,3.077,11.676,7.725,15.419,13.337c1.008-3.055,2.017-6.11,3.025-9.165c2.672,5.024,5.344,10.047,8.016,15.07
		c1.057-1.665,2.114-3.329,3.17-4.994c1.667,2.722,3.334,5.445,5.001,8.167c11.797-18.145,34.706-27.631,57.004-31.729
		c2.58-0.474,5.169-0.887,7.765-1.261c1.228,1.336,2.501,2.638,3.865,3.862c8.77,7.86,20.453,13.106,32.747,13.704
		c0.216-0.791,0.432-1.582,0.648-2.372c-0.071,2.819,3.324,4.6,6.354,4.768c3.03,0.169,6.134-0.618,9.092-0.025
		c2.958,0.593,5.709,3.531,4.306,6.058c8.978-3.547,17.955-7.094,26.933-10.641c2.223-1.823,4.446-3.646,6.669-5.469
		c0.247,1.175,1.081,2.222,2.217,2.78c0.971-1.012,1.943-2.025,2.914-3.037c0.108,2.523,3.877,3.61,6.302,2.409
		c2.425-1.201,3.72-3.689,4.852-6.009c0.763,1.81,1.526,3.62,2.289,5.431C397.481,358.901,408.662,345.747,412.096,331.006z"/>
</g>
<g id="Layer_1">
</g>
</svg>
