<?xml version="1.0" encoding="iso-8859-1"?>
<!-- Generator: Adobe Illustrator 19.0.0, SVG Export Plug-In . SVG Version: 6.00 Build 0)  -->
<svg version="1.1" xmlns="http://www.w3.org/2000/svg" xmlns:xlink="http://www.w3.org/1999/xlink" x="0px" y="0px"
	 viewBox="0 0 430 418.854" style="enable-background:new 0 0 430 418.854;" xml:space="preserve">
<g id="tiger-head-pattern-7">
	<path d="M396.073,107.939c-6.519-10.018-14.514-19.253-23.523-27.305c2.011-2.281,3.802-4.748,5.22-7.499
		c6.171-11.972,4.768-26.273,3.211-39.652c-0.632-5.432-1.767-11.661-6.523-14.36c-3.768-2.139-8.463-1.221-12.668-0.177
		c-22.052,5.476-43.595,12.916-64.424,21.995c-17.453-7.399-37.574-7.873-56.776-7.194c-5.498,0.194-11.004,0.462-16.501,0.844
		c-15.51-10.151-31.02-20.302-46.53-30.454c-3.797-2.485-8.252-5.081-12.604-3.798c-4.659,1.372-6.942,6.492-8.641,11.042
		c-4.736,12.687-9.533,25.681-9.762,39.221c-0.017,1.029,0.059,2.066,0.104,3.102C135.639,59.46,125.454,66.687,116.9,75.69
		c-13.89,14.62-29.728,36.413-40.995,58.253c-32.435,16.91-70.262,36.193-72.748,41.442c-5.357,11.308-3.178,50.548,1.205,62.268
		c2.459,6.576,5.098,13.423,10.328,18.107c4.305,3.856,9.948,5.778,15.667,6.832c0.938,2.341,2.136,4.577,3.645,6.599
		c4.774,6.4,12.245,10.72,20.174,11.664c-2.948-5.322-4.773-11.229-5.504-17.269c10.867-0.637,21.694-3.168,32.103-6.497
		c3.476-1.111,7.903,0.794,12.85,4.355c9.92,9.354,10.532,20.342,16.735,37.044c2.015,5.426,3.527,11.468,1.615,16.931
		c-2.262,6.464-8.83,10.509-15.442,12.291c-2.978,0.802-6.029,1.234-9.092,1.606c-3.328-3.552-6.362-7.379-9.042-11.444
		c-0.767-1.164-2.242-2.492-3.312-1.598c-0.521,0.435-0.59,1.197-0.609,1.875c-0.119,4.316,0.265,8.637,1.066,12.879
		c-4.337,0.939-8.775,2.686-11.1,6.425c-2.188,3.518-2.012,7.957-1.764,12.092c0.929,15.5,2.153,31.883,11.039,44.617
		c6.063,8.688,15.191,14.818,24.803,19.274c7.938,3.68,16.712,6.388,25.364,5.09c8.652-1.298,17.023-7.496,18.564-16.109
		c0.529,4.642,3.092,9.016,6.883,11.745c1.835-2.685,3.152-5.681,4.14-8.779c12.214,10.392,29.684,14.738,45.158,10.217
		c-6.25-0.626-11.508-6.534-11.403-12.814c9.129,10.061,26.176,8.742,37.222,0.832c11.045-7.91,17.535-20.546,23.617-32.694
		c1.069,7.49,2.138,14.98,3.207,22.471c19.375-18.429,42.874-31.834,66.117-45.053c3.639,11.167,2.372,23.839-3.407,34.064
		c46.088-26.993,77.303-77.825,80.53-131.138c5.59,4.474,9.407,11.105,10.469,18.185c2.123-15.928,4.247-31.856,6.371-47.784
		c6.216,2.212,12.432,4.422,18.647,6.634C426.954,186.271,419.058,143.258,396.073,107.939z"/>
</g>
<g id="Layer_1">
</g>
</svg>
