<?xml version="1.0" encoding="iso-8859-1"?>
<!-- Generator: Adobe Illustrator 19.0.0, SVG Export Plug-In . SVG Version: 6.00 Build 0)  -->
<svg version="1.1" xmlns="http://www.w3.org/2000/svg" xmlns:xlink="http://www.w3.org/1999/xlink" x="0px" y="0px"
	 viewBox="0 0 430 411.204" style="enable-background:new 0 0 430 411.204;" xml:space="preserve">
<g id="tiger-head-pattern-5">
	<path d="M412.446,188.422c-15.781-16.224-33.44-30.422-51.584-44.001c-1.043-19.021-2.712-39.332-16.354-51.745
		c-10.26-9.336-21.136-17.538-32.423-24.743c4.282-16.286,2.667-33.619-5.364-48.961c-1.221-2.334-3.336-5.002-6.451-4.788
		c-1.694,0.116-3.08,1.095-4.335,2.024c-11.963,8.866-23.927,17.732-35.89,26.598c-21.626-7.443-43.823-11.703-65.682-13.062
		c-11.318-10.673-24.342-20.128-38.647-27.926c-1.544-0.842-3.192-1.691-4.997-1.804c-3.229-0.203-5.747,1.948-7.669,4.005
		c-8.591,9.193-14.528,20.022-17.705,31.499C82.614,45.841,46.087,68.619,24.88,102.031C0.318,140.728-6.597,190.184,6.547,234.094
		c2.593-3.672,5.186-7.343,7.779-11.015c7.608,36.103,23.033,70.539,44.908,100.251c2.125-6.24,4.249-12.481,6.374-18.721
		c10.977,29.04,34.667,53.013,63.575,64.333c-0.005-4.246-0.01-8.492-0.015-12.738c8.125,8.239,18.649,14.084,29.938,16.625
		c-1.214-6.933-1.61-13.931-1.342-20.904c5.674,9.617,12.07,18.808,19.184,27.417c0.777-4.891,1.554-9.783,2.332-14.674
		c1.834,14.868,13.176,28.122,27.583,32.23c1.496-4.636,2.992-9.273,4.488-13.909c4.2,13.928,16.36,25.147,30.581,28.214
		c-12.769-14.622-13.543-37.221-5.244-54.77c8.299-17.549,24.24-30.496,41.555-39.273c5.139,5.658,10.279,11.317,15.418,16.975
		c6.435-2.96,12.871-5.921,19.307-8.881c1.253,2.29,2.507,4.581,3.76,6.871c3.993-1.729,7.986-3.458,11.98-5.187
		c-0.369,4.091,4.517,7.044,8.567,6.352c4.049-0.691,7.24-3.719,10.162-6.605c-1.283,4.36-2.565,8.72-3.848,13.08
		c23.06-10.851,38.739-35.022,40.949-60.254c6.132-0.365,12.253-2.139,17.531-5.253c11.768-6.943,19.705-19.12,24.253-32.004
		c3.385-9.589,5.091-20.168,2.221-29.924C425.805,203.018,419.213,195.38,412.446,188.422z"/>
</g>
<g id="Layer_1">
</g>
</svg>
