<?xml version="1.0" encoding="iso-8859-1"?>
<!-- Generator: Adobe Illustrator 19.0.0, SVG Export Plug-In . SVG Version: 6.00 Build 0)  -->
<svg version="1.1" xmlns="http://www.w3.org/2000/svg" xmlns:xlink="http://www.w3.org/1999/xlink" x="0px" y="0px"
	 viewBox="0 0 422.445 430" style="enable-background:new 0 0 422.445 430;" xml:space="preserve">
<g id="tiger-head-pattern-6">
	<path d="M370.079,74.862l0.114-0.172c9.676-14.684,5.356-34.117,0.697-51.074C368.028,13.203,364.094,1.395,351.27,0.1
		c-4.472-0.452-8.989,0.662-13.015,2.66c-16.027,7.957-26.181,23.063-37.004,36.904c-2.348,3.004-4.804,5.995-7.384,8.872
		c-9.532-5.829-21.201-8.365-32.287-8.419c-17.832-0.087-35.45,4.733-53.282,4.717c-18.207-0.016-36.21-5.074-54.413-4.608
		c-9.101,0.232-18.617,2.29-26.859,6.513c-2.01-2.322-3.966-4.687-5.833-7.075C110.37,25.823,100.216,10.717,84.19,2.761
		C80.164,0.762,75.647-0.351,71.175,0.1C58.35,1.394,54.416,13.203,51.555,23.615c-4.66,16.957-8.979,36.39,0.697,51.074
		c0.038,0.058,0.076,0.115,0.114,0.172c6.422,9.607,6.945,22.103-0.006,31.335C12.696,158.881-6.766,229.775,2.123,297.369
		l29.215-20.054c-8.688,18.899-12.443,40.446-10.716,61.494c11.31-13.499,25.364-24.261,40.859-31.288
		c-8.227,20.858-7.05,45.834,3.094,65.668c0.671-8.249,5.845-15.876,12.892-19.003c3.69,13.788,7.004,21.527,7.004,21.527
		c4.084-2.237,8.876-2.744,13.727-2.312c13.807,1.227,25.906,9.693,32.891,21.667c5.909,10.131,13.974,18.738,23.642,24.556
		c0.946-4.323,1.891-8.645,2.837-12.968c9.594,7.782,19.188,15.564,28.782,23.346c-1.915-2.617-1.728-6.107-0.303-9.036
		c7.896,5.731,17.933,8.568,27.632,7.337c7.803-0.99,15.14-4.614,20.966-9.889c2.816,3.197,3.979,8.133,1.451,11.588
		c9.594-7.782,19.188-15.564,28.783-23.346c0.946,4.323,1.891,8.645,2.837,12.968c10.296-6.195,18.774-15.556,24.767-26.551
		c4.986-9.148,12.912-16.542,22.914-19.458c6.776-1.975,14.672-2.4,22.578,2.099c5.357-8.432,4.721-12.818,7.005-21.527
		c7.047,3.127,12.221,10.754,12.892,19.003c10.144-19.833,11.321-44.809,3.094-65.668c15.495,7.027,29.549,17.789,40.859,31.288
		c1.726-21.048-2.029-42.596-10.716-61.494l29.215,20.054c8.819-67.072-10.276-137.396-49.325-189.951
		C363.868,97.824,363.469,84.821,370.079,74.862z"/>
</g>
<g id="Layer_1">
</g>
</svg>
