<?xml version="1.0" encoding="iso-8859-1"?>
<!-- Generator: Adobe Illustrator 19.0.0, SVG Export Plug-In . SVG Version: 6.00 Build 0)  -->
<svg version="1.1" xmlns="http://www.w3.org/2000/svg" xmlns:xlink="http://www.w3.org/1999/xlink" x="0px" y="0px"
	 viewBox="0 0 430 356.013" style="enable-background:new 0 0 430 356.013;" xml:space="preserve">
<g id="tiger-head-pattern-2">
	<path d="M7.667,193.146c3.093,9.729,11.038,17.976,19.504,24.162c3.886,2.84,8.161,5.447,12.676,7.033
		c5.956,17.135,17.005,32.501,31.552,43.357c-5.545-14.937-8.218-30.929-7.881-46.857c7.174-4.366,13.901-10.287,22.008-12.394
		c6.973-1.813,14.434-0.614,21.201,1.86c13.627,4.982,25.25,15.233,31.895,28.131c6.548,12.708,4.991,17.759,1.258,31.284
		c-1.177,2.485-2.371,4.962-3.548,7.437c-2.774,5.835-5.462,11.786-7.577,17.891c-9.232,2.36-19.201,1.868-28.085-1.597
		c-0.663-0.259-1.411-0.533-2.062-0.244c-0.983,0.437-1.053,1.796-0.884,2.858c1.29,8.068,7.528,14.654,14.753,18.469
		c3.846,2.031,7.969,3.392,12.194,4.448c0.405,10.243,3.931,20.437,11.463,27.238c6.314,5.701,14.804,8.524,23.264,9.418
		c8.459,0.894,16.994,0.008,25.454-0.879c-1.254-2.145-2.508-4.289-3.762-6.434c4.566,2.536,9.894,3.678,15.099,3.236
		c-4.959-7.963-4.21-19.065,1.773-26.29c1.88-2.271,5.479-4.161,7.538-2.051c-1.696-4.345-1.064-9.149,0.9-13.444
		c28.027-0.667,56.124,1.586,83.675,6.771c-3.046-2.774-6.092-5.547-9.137-8.321c24.746,1.812,50.094-7.141,68.213-24.092
		c-5.323-0.245-10.645-0.49-15.968-0.735c1.469-2.042,2.939-4.083,4.408-6.124c-1.944-3.404-3.888-6.808-5.832-10.212
		c3.523-1.688,7.045-3.375,10.568-5.063c-8.196,0.226-16.439-2.726-22.628-8.104c55.708-22.819,98.52-74.743,110.302-133.779
		c-17.41,7.533-37.762,7.994-55.495,1.258c11.727-6.413,21.359-16.588,27.121-28.648c-5.899,4.299-14.053,5.294-20.813,2.541
		c23.477-24.969,38.302-57.925,41.411-92.057c-39.129,9.606-79.503,14.127-119.788,13.414c-20.544-0.364-41.234-2.037-61.662-0.683
		c-0.29-7.006-4.057-13.923-10.721-15.562c-5.481-1.349-11.116,1.103-16.154,3.649c-19.428,9.815-37.638,22.001-54.224,36.096
		c-2.068,0.946-4.135,1.893-6.197,2.843c-16.728,7.704-33.815,15.65-46.973,28.535c-13.751,13.465-22.557,31.687-34.766,46.318
		c-15.961,6.215-33.373,15.157-40.154,20.926c-8.073,6.868-14.286,15.617-20.411,24.268c-3.385,4.781-6.77,9.562-10.155,14.343
		c-0.428,0.604-0.867,1.236-0.985,1.967c-0.182,1.126,0.428,2.212,1.015,3.189C3.187,186.076,5.37,189.654,7.667,193.146z"/>
</g>
<g id="Layer_1">
</g>
</svg>
