<?xml version="1.0" encoding="iso-8859-1"?>
<!-- Generator: Adobe Illustrator 19.0.0, SVG Export Plug-In . SVG Version: 6.00 Build 0)  -->
<svg version="1.1" xmlns="http://www.w3.org/2000/svg" xmlns:xlink="http://www.w3.org/1999/xlink" x="0px" y="0px"
	 viewBox="0 0 430 409.465" style="enable-background:new 0 0 430 409.465;" xml:space="preserve">
<g id="tiger-head-pattern-1">
	<path d="M1.278,91.016c0.512,6.137,2.879,12.913-0.543,18.033c2.445,0.393,4.891,0.787,7.336,1.18
		c-1.726,20.793-0.939,41.794,2.339,62.4c3.848-1.689,7.696-3.378,11.545-5.067c-13.712,45.231-3.874,96.92,25.496,133.95
		c1.233-4.243,2.466-8.487,3.699-12.731c6.661,19.634,16.672,38.126,29.472,54.437c18.923-27.241,43.051,23.294,62.391,38.236
		c-0.124-6.426-0.247-12.853-0.371-19.279c8.695,12.566,21.64,22.136,36.203,26.764c-1.67-13.153,7.558-25.753,19.152-32.185
		c3.816-2.117,7.859-3.671,12.019-4.904c4.954,1.739,10.05,3.24,14.937,5.032c11.711,4.294,23.909,12.433,25.395,24.817
		c1.308-0.908,2.616-1.817,3.925-2.726c8.153,6.246,12.578,17.027,11.164,27.199c4.974,0.887,10.317-0.582,14.138-3.888
		c-1.137,2.393-2.273,4.786-3.409,7.179c14.509-1.233,29.88-4.961,39.566-15.834c6.666-7.483,9.583-17.484,9.436-27.58
		c7.307-9.847,11.404-22.117,10.945-34.387c-0.046-1.222-0.208-2.592-1.166-3.351c-1.658-1.314-3.997,0.213-5.587,1.608
		c-3.805,3.338-7.991,6.229-12.424,8.673c-8.58-14.832-21.73-27.157-30.512-42.083c-1.527-2.595-2.857-5.307-4.09-8.064
		c4.873-24.231,33.146-28.522,47.693-26.979c10.574,1.121,21.235,2.334,31.836,2.157c-0.554,9.888-5.644,19.714-15.019,28.326
		c8.725,0.778,15.99-3.36,20.76-7.238c9.841-8.002,17.243-16.802,21.988-25.973c8.662-3.339,16.499-8.53,22.071-15.885
		c7.151-9.441,9.569-22.815,5.356-33.605c3.608-4.132,6.236-9.419,8.725-14.585c4.487-9.312,6.611-16.649,0.35-24.874
		c-6.261-8.225-15.47-13.659-24.78-18.151c-9.31-4.491-40.412-19.546-48.897-25.45c-15.601-10.856-4.291-16.561-17.374-30.347
		c-18.162-19.137-42.111-32.013-67.071-40.562c-21.704-7.434-44.297-11.793-66.921-15.73c-3.953-9.06-7.906-18.12-11.859-27.18
		c-1.744-3.997-3.685-8.231-7.374-10.559c-5.215-3.291-12.162-1.643-17.576,1.309c-13.425,7.322-21.799,21.188-28.934,34.712
		c-0.075,0.142-0.148,0.286-0.222,0.428c-25.232-0.205-50.493,3.226-74.719,10.287C40.462,54.717,20.32,60.117,0,64.732
		c3.641,4.703,7.282,9.407,10.923,14.11C5.091,76.865,0.766,84.88,1.278,91.016z"/>
</g>
<g id="Layer_1">
</g>
</svg>
