<svg version="1.0" xmlns="http://www.w3.org/2000/svg" viewBox="0 0 1200 1200" preserveAspectRatio="xMidYMid meet"><g transform="translate(0,1200) scale(0.1,-0.1)" fill="black" stroke="none"><path d="M5900 11753c-285-30-607-121-855-243-338-165-503-334-539 -551-6-36-7-37-64-44-219-26-316-192-416-710-46-244-51-309 -51-710l0-380 38-168c50-226 50-225-15-267-104-69-157-169-165 -315-18-315 254-742 518-814l62-18 28-94c15-52 59-208 99-347 155 -551 250-773 394-931 42-45 70-85 78-113 17-55 14-254-4-327l-13 -55-63-20c-34-11-62-25-62-31 0-6 12-18 28-26 67-39 328-184 687 -384 215-119 394-220 399-225 4-4-133-248-305-542-171-293-319 -544-327-558l-14-25 23 26c13 14 65 79 116 145 107 140 274 327 326 367 21 16 45 27 54 25 9-2 32-29 50-61 28-46 55-74 90-92 2-1-13-82-33 -181-164-840-254-1470-311-2179-13-171-17-340-18-765 0-300 3 -589 8-642 4-54 4-98 0-98-9 0-137 191-235 350-365 592-630 1247 -762 1880-75 356-106 669-106 1056 0 371 28 666 97 1021l25 132-36 84 c-20 46-36 98-36 114 0 36 54 163 166 387 46 94 84 172 84 174 0 3-16 2 -35-1-35-6-144-76-370-241-209-151-401-311-544-453-155-154 -200-185-401-273-264-117-532-199-947-290-517-113-558-123-678 -157-418-119-637-286-731-559-33-97-40-140-74-494-48-489-139 -1122-261-1809-60-339-61-344-44-387 128-337 1416-575 3595-664 129-5 531-15 892-22 1562-28 3296 41 4538 183 1134 129 1801 316 1858 521 13 49-9 179-143 814-134 632-236 1280-265 1676-11 156-28 227-75 323 -84 171-228 270-495 339-129 34-230 50-530 86-456 55-651 90-870 155 -303 90-580 241-694 377-146 173-544 470-992 738-147 87-194 111-194 96 0-2 16-30 36-62 65-108 204-418 204-457 0-7-16-45-35-86-19 -40-35-82-35-94 0-12 16-78 35-147 126-445 157-1008 89-1588-103 -890-457-1879-927-2589-80-122-104-148-90-95 5 15 8 221 8 457-1 441-9 607-55 1065-67 668-217 1611-343 2163l-33 146 28 21c16 12 45 46 63 75 19 30 40 57 47 61 14 9 126-106 346-360 87-99 170-193 186-210 25 -28 27-28 16-6-7 14-175 266-373 560-198 294-360 542-361 550-1 15 147 94 1051 562 57 29 103 55 103 58 0 4-26 11-57 18-32 7-65 16-73 22 -32 20-22 314 15 436 9 32 36 77 70 120 132 163 183 327 314 1006 57 292 89 418 106 418 6 0 39 14 73 30 184 93 355 414 378 715 17 209-65 381-209 441 -34 14-47 25-47 39 0 11 14 101 31 200 25 149 29 196 24 275-3 52-12 234 -20 403-25 519-66 785-154 990-19 45-251 379-336 484-215 267-431 411 -737 493-251 66-620 104-818 83z"/></g></svg> 
