<svg version="1.0" xmlns="http://www.w3.org/2000/svg" viewBox="0 0 840 720" preserveAspectRatio="xMidYMid meet"><g transform="translate(0,720) scale(0.1,-0.1)" fill="black" stroke="none"> <path d="M3825 6789c-514-53-908-367-1151-918-159-362-243-736-324 -1450-34-300-48-367-92-460-44-93-165-212-273-268-154-79-363 -127-608-140l-130-6 124-62c321-161 561-187 760-83 77 40 90 44 64 23-39-32-178-97-254-118-63-17-104-21-242-21l-167 0 20-71c30 -111 91-227 151-288 94-96 199-135 385-144l123-6-6-26c-16-69-50 -116-100-141-43-21-63-24-152-24l-102 1 22-31c85-120 253-248 443-338 58-27 104-51 102-53-2-3-155-50-338-106-347-104-413 -132-520-214-111-85-230-235-305-384-40-79-107-259-150-396-20 -66-52-169-72-229l-35-108 78-80c93-94 177-159 256-199l57-29 1110 0c681 0 1112-4 1116-9 3-6 15-7 28-5 12 3 771 8 1687 10l1665 5 70 35c56 28 251 175 314 239 12 12 0 48-84 247-203 485-327 702-494 868 -144 144-166 153-701 300-245 67-447 124-449 125-2 2 19 30 47 62 201 234 330 557 389 973 25 176 25 717 0 945-36 330-94 674-154 915-207 833 -640 1370-1268 1573-251 81-571 114-840 86zm643-943c78-40 254-159 328-223 341-295 500-621 534-1092 20-287-21-632-135-1127l-17-72 -116-99c-271-229-267-227-351-235-42-4-128-3-191 2-63 5-122 10 -130 10-20 0 79-66 158-106l64-32-94-62c-153-101-330-175-445 -186-101-10-298 58-430 147-99 67-274 223-449 401-207 209-184 166 -229 443-33 201-61 477-79 775-9 135-18 277-21 316-6 83 2 95 100 141 51 24 72 28 145 28 95-1 140-18 210-81l39-35 58 101c32 55 72 123 89 152l32 51 6-104c3-57 9-160 14-227l7-124 425 631c233 347 426 631 427 631 2 0 25-11 51-24zm502-2791c0-14-4-25-9-25-5 0-23-3-42 -7l-33-6 34 31c42 38 50 39 50 7zm-1332-343c76-49 214-108 302-129 162-38 388 34 634 202l96 65 75-21c42-11 113-23 158-27l82-7 10-170 10-170-300-991-299-991-90-7c-83-6-656-9-656-3-1 1-76 418 -169 927l-168 925 25 49c42 86 73 228 79 372l6 132 71-58c39-31 99-75 134-98z"/></g></svg> 
