<svg version="1.0" xmlns="http://www.w3.org/2000/svg" viewBox="0 0 512 512" preserveAspectRatio="xMidYMid meet"><g transform="translate(0,512) scale(0.1,-0.1)" fill="black" stroke="none"><path d="M2400 4787c-90-28-148-57-193-97-31-27-38-28-90-23-137 14-279-106-382-322-60-128-75-194-91-415-40-564-146-985-286 -1144l-38-44 23-14c26-18 151-68 167-68 36 0 108 86 142 169l18 46-6 -45c-3-25-17-78-29-118-25-78-26-76 32-86 27-5 36-1 58 27l26 32-6-36-7-36 144-16c79-9 172-20 206-23l64-7-3-56c-1-31-1 -88-1-127l2-70 168-152 167-152 73 0 73 0 169 150 169 151 3 126 3 127 159 18c276 31 528 83 621 130 22 11 42 22 44 24 2 2-20 29-49 61-93 104 -162 278-189 477-6 44-18 221-26 393-16 346-34 493-71 591-72 191 -221 340-448 448-152 72-249 96-406 100-120 4-143 2-210-19z"/><path d="M1800 2154c-350-158-462-202-550-214-105-15-148-43-204 -133-93-150-222-620-270-988-8-62-13-116-10-120 7-12 347-143 488-189 248-79 530-140 826-177 207-25 753-25 960 0 313 39 585 99 856 188 147 48 442 163 455 177 17 19-40 359-101 602-77 309-143 479-218 562 -44 48-76 63-167 78-89 14-175 48-502 196-150 68-276 124-279 124-15 0 13-354 57-741 11-88 10-112-1-139-8-19-65-102-128-184-63-83 -142-188-176-233-33-45-64-82-67-83-3 0-9 80-13 178-8 222-19 294-57 402-17 47-40 115-52 152l-21 68 22 27c85 106 99 155 59 214-32 48-111 67-194 48-65-16-92-44-99-105-6-40 13-76 78-157l22-27 -21-68c-12-37-35-106-52-153-37-104-49-189-59-413l-7-169-171 224c-94 123-180 240-192 260-28 46-28 65 2 335 26 230 51 546 45 563-2 5-119-42-259-105z"/></g></svg>
