<svg version="1.1" xmlns="http://www.w3.org/2000/svg" xmlns:xlink="http://www.w3.org/1999/xlink" viewBox="0 0 485.959 485.959"><path d="M296.379,292.859v-19.3c0,0,61.1,1.9,90.1-27.7c0,0-42.2-12-34.6-88.7c7.6-76.8-9.5-144.2-71.2-138.5c0,0-26.8-32.2-80-12c-18.3,7-67.3,24.5-64.8,130.9s-37.8,107-37.8,107s20.8,30.2,91.3,29.6v19.8l53.6,156.6l53.5-156.3L296.379,292.859z"/><path d="M429.579,393.259c-3.5-19.3-16-35.8-33.6-44.5l-67.5-33.3c-3.9-1.9-7.7-4-11.5-6.1l21.3,62.8l-29.7-2.3l-65.6,80.7l-65.6-80.8l-29.7,2.3l21.7-62.8l-13.5,6.9l-65.9,32.6c-17.6,8.7-30.1,25.2-33.6,44.5l-5.2,28.7c49.8,39.6,117.4,64,191.8,64s142-24.4,191.8-64L429.579,393.259z"/></svg>
