<svg version="1.0" xmlns="http://www.w3.org/2000/svg" viewBox="0 0 512 512" preserveAspectRatio="xMidYMid meet"><g transform="translate(0,512) scale(0.1,-0.1)" fill="black" stroke="none"><path d="M2061 4959c-161-34-329-111-456-209-143-110-294-301-355 -447-91-219-107-417-70-863 34-414 24-570-50-726-38-83-118-176 -195-230l-29-21 94-95c98-99 181-158 309-223 155-77 364-144 569 -181l92-17 0-54c0-147 39-368 95-538 18-55 135-339 259-632 124 -292 226-535 226-538 0-4-147 169-326 384-179 215-329 391-332 391-4 0-143-49-310-109-167-60-301-104-299-97 3 6 97 180 210 386 113 206 205 376 203 377-6 6-771-309-826-339-81-46-218-188-262-273-38 -74-78-192-78-229 1-15 20-33 68-63 407-253 972-415 1614-464 202 -15 684-6 873 16 588 69 1067 219 1437 448 78 49 79 52 44 161-49 154-158 299-291 386-71 47-838 364-843 349-2-4 90-175 204-379 113-204 205 -373 203-375-3-2-138 43-302 101-164 57-302 104-306 104-4 0-153 -175-332-389-178-214-325-387-327-386-2 2 99 243 223 537 125 293 242 578 260 633 56 170 95 391 95 539l0 54 73 12c111 18 301 69 415 111 145 54 301 137 307 163 31 138 44 519 26 752-47 590-205 1129-418 1426-137 191-296 279-464 258l-52-7-61 61c-114 114-280 200-461 237-123 26 -326 25-454-2z"/></g></svg> 
