<?xml version="1.0" standalone="no"?>
<!DOCTYPE svg PUBLIC "-//W3C//DTD SVG 20010904//EN"
 "http://www.w3.org/TR/2001/REC-SVG-20010904/DTD/svg10.dtd">
<svg version="1.0" xmlns="http://www.w3.org/2000/svg"
 width="536.000000pt" height="720.000000pt" viewBox="0 0 536.000000 720.000000"
 preserveAspectRatio="xMidYMid meet">

<g transform="translate(0.000000,720.000000) scale(0.100000,-0.100000)"
fill="#000000" stroke="none">
<path d="M1762 7183 c-5 -10 -5 -36 0 -59 7 -33 25 -57 93 -125 82 -81 111
-103 300 -230 103 -69 135 -97 135 -116 0 -28 -43 -9 -186 82 -195 125 -337
197 -481 245 -232 77 -426 75 -478 -4 -29 -44 -3 -69 102 -101 141 -43 304
-102 446 -162 73 -31 150 -61 171 -68 22 -7 42 -17 44 -24 6 -17 -43 -7 -202
41 -216 64 -351 89 -533 95 -110 4 -182 2 -225 -7 -111 -21 -199 -81 -182
-123 6 -18 29 -23 144 -32 153 -12 574 -85 589 -101 3 -4 -28 -4 -69 0 -41 3
-188 9 -325 12 -214 6 -262 5 -325 -10 -116 -26 -250 -96 -250 -130 0 -20 41
-25 271 -32 115 -4 207 -9 205 -11 -2 -3 -78 -11 -168 -19 -274 -24 -427 -66
-588 -162 l-45 -27 260 -5 260 -5 -135 -34 c-229 -57 -372 -101 -450 -138
l-75 -35 30 -14 c20 -9 75 -13 168 -14 75 0 137 -4 137 -8 0 -5 -42 -25 -92
-46 -51 -20 -108 -45 -126 -55 l-34 -17 37 -33 c20 -17 50 -34 66 -38 37 -7
41 -13 27 -50 -15 -39 12 -96 53 -113 33 -14 36 -22 14 -40 -22 -19 -19 -82 6
-114 19 -24 20 -32 10 -65 -6 -21 -11 -47 -11 -58 0 -10 -19 -37 -41 -58 -49
-47 -99 -121 -99 -147 0 -9 14 -33 30 -51 26 -30 30 -43 30 -90 0 -64 13 -83
65 -93 l35 -6 0 -66 c0 -52 5 -74 25 -109 14 -23 30 -43 34 -43 16 0 20 -27
10 -71 -12 -54 3 -124 34 -157 14 -15 20 -33 19 -55 -3 -37 16 -115 33 -137 7
-8 12 -42 12 -75 0 -65 20 -117 53 -135 16 -9 20 -21 20 -66 0 -30 7 -69 16
-85 13 -25 13 -36 3 -67 -19 -55 -16 -165 6 -198 15 -24 21 -26 61 -20 24 3
44 2 44 -2 1 -50 26 -144 47 -174 27 -40 42 -96 43 -165 0 -34 5 -46 26 -60
55 -37 84 -71 84 -98 0 -33 59 -95 90 -95 13 0 38 -10 57 -21 28 -17 43 -20
81 -15 165 23 192 21 192 -20 0 -30 21 -76 55 -123 14 -19 25 -48 25 -65 0
-54 10 -72 54 -96 38 -20 52 -22 112 -17 38 3 94 12 124 20 41 11 70 12 113 6
36 -6 87 -6 135 0 80 10 108 18 252 70 127 46 127 46 125 -40 -1 -64 -4 -74
-26 -90 -14 -9 -144 -79 -289 -154 -355 -184 -538 -282 -700 -376 -153 -88
-131 -82 -475 -124 -339 -41 -379 -52 -373 -98 3 -19 -12 -29 -99 -72 -56 -27
-113 -60 -125 -71 -13 -12 -60 -41 -106 -63 -84 -42 -95 -57 -54 -76 12 -5 22
-12 22 -15 0 -3 -30 -18 -65 -34 -36 -16 -65 -33 -65 -37 0 -22 47 -31 132
-25 75 5 86 4 82 -9 -20 -51 298 40 590 169 82 36 151 66 153 66 2 0 -3 -13
-12 -30 -17 -34 -97 -81 -260 -153 -61 -28 -129 -66 -153 -88 -39 -34 -67 -50
-152 -87 -55 -24 66 -12 141 13 41 14 107 35 147 46 41 11 105 35 144 55 38
19 82 39 96 45 63 22 -36 -43 -170 -112 -76 -38 -138 -71 -138 -73 0 -7 130
16 220 39 128 33 200 24 200 -26 0 -10 12 -32 28 -49 26 -30 30 -31 127 -35
85 -3 108 0 162 20 81 31 108 49 132 91 24 39 62 59 138 69 l52 7 3 -39 c2
-28 8 -38 20 -38 30 0 31 -13 4 -59 -34 -58 -18 -68 27 -16 18 22 42 40 51 40
20 0 126 97 126 116 0 7 12 26 26 43 30 36 64 41 64 11 0 -11 4 -20 9 -20 6 0
6 -13 1 -32 -23 -94 -24 -90 10 -83 19 4 30 3 30 -4 0 -6 12 -14 26 -17 23 -6
25 -10 19 -43 l-7 -36 44 42 c47 46 58 51 58 29 0 -8 11 -28 25 -43 25 -28 25
-28 41 -8 9 11 31 50 49 86 38 73 80 129 99 129 37 0 61 -71 30 -88 -16 -9
-76 -94 -70 -99 2 -2 27 8 57 22 51 23 89 32 89 19 0 -3 -12 -21 -26 -40 -15
-20 -21 -34 -14 -34 9 0 9 -4 -1 -17 -13 -15 -11 -16 14 -9 32 8 33 3 6 -35
-20 -28 -20 -29 -1 -29 29 0 34 -11 16 -38 -15 -23 -15 -25 1 -19 9 4 29 10
43 12 l27 6 -22 -17 c-44 -32 -22 -34 38 -3 63 31 84 32 56 2 -15 -17 -12 -18
49 -15 l64 4 0 -60 c0 -33 3 -62 8 -64 14 -6 52 -98 52 -126 0 -31 54 -122 96
-164 l28 -27 23 35 c28 41 35 42 63 7 l20 -26 28 26 c16 15 31 27 33 27 10 0
30 -80 24 -90 -3 -6 1 -10 9 -10 10 0 13 -6 9 -16 -4 -11 1 -22 12 -30 25 -19
29 -18 64 12 17 14 31 22 31 18 0 -4 9 1 19 10 14 13 28 16 53 11 18 -3 45 -2
60 4 22 8 34 7 59 -7 24 -13 33 -14 36 -4 3 6 13 12 22 12 19 0 57 32 78 66
12 18 13 18 33 -5 15 -17 20 -37 20 -76 0 -46 4 -56 26 -72 l25 -19 -23 -31
c-13 -17 -38 -50 -55 -74 -27 -34 -33 -51 -33 -91 0 -55 10 -80 48 -120 39
-42 57 -37 33 9 -27 56 -35 100 -21 133 13 30 40 48 40 26 0 -19 33 -46 57
-46 14 0 39 22 74 66 59 74 74 77 138 25 45 -36 46 -42 9 -66 -46 -29 -70 -67
-75 -119 -7 -55 9 -98 49 -131 44 -38 51 -30 23 25 -35 70 -32 103 17 157 l20
22 33 -35 c42 -45 70 -44 92 1 9 19 21 35 27 35 6 0 22 14 36 30 17 21 40 34
69 41 39 9 46 7 63 -11 21 -22 39 -25 55 -9 15 15 80 14 98 -1 10 -8 15 -32
15 -71 0 -81 15 -77 44 14 3 11 16 17 35 17 42 0 66 -37 56 -86 -8 -46 10 -37
24 11 6 21 5 51 -1 80 -8 36 -7 49 3 55 16 10 38 2 64 -22 31 -29 94 -68 111
-68 8 0 19 11 26 24 30 68 101 22 116 -75 9 -53 9 -53 20 -26 36 86 -25 180
-130 202 -19 4 -34 17 -47 43 -10 20 -31 48 -46 62 -25 23 -35 25 -145 28
l-119 4 -20 33 c-27 46 -55 62 -141 80 -80 17 -151 54 -182 96 -14 19 -22 52
-28 121 -4 53 -13 105 -20 117 -10 21 -81 293 -129 501 -12 53 -42 145 -67
205 -82 200 -106 269 -107 315 -2 42 5 55 84 165 47 66 130 184 184 263 95
138 102 146 189 203 50 33 125 77 166 97 72 36 77 37 180 36 181 -2 385 -66
478 -150 29 -26 64 -72 86 -113 20 -39 41 -73 46 -76 16 -10 11 -35 -12 -68
l-22 -30 35 6 c121 24 191 166 160 325 -6 31 -15 116 -20 187 -18 242 -92 378
-332 611 -113 108 -185 162 -294 216 -111 56 -174 74 -427 124 l-237 47 -12
71 c-21 114 -15 354 10 460 27 114 47 157 107 233 27 34 57 74 67 88 11 15 63
48 125 78 82 40 108 57 110 74 3 19 -7 25 -78 47 -45 14 -88 26 -97 26 -9 0
-71 27 -137 60 -173 86 -287 100 -344 43 -31 -31 -21 -43 68 -79 39 -16 70
-32 70 -36 0 -7 -78 -24 -160 -33 -114 -14 -266 -61 -292 -92 -11 -14 -9 -15
20 -9 17 3 46 9 62 12 18 3 30 1 30 -5 0 -6 -10 -11 -23 -11 -13 0 -37 -10
-55 -23 -37 -28 -105 -52 -125 -44 -21 8 -90 269 -128 487 -12 70 -14 304 -6
875 1 87 -3 143 -12 169 -29 83 -138 166 -220 166 -41 0 -183 -17 -213 -26
-12 -4 -25 13 -51 68 -67 139 -280 400 -445 544 -149 131 -282 212 -416 253
-84 26 -122 27 -134 4z m2316 -6779 c35 -15 36 -16 18 -30 -27 -19 -42 -18
-65 8 -35 37 -14 48 47 22z m643 -21 c13 -15 11 -16 -16 -9 -41 10 -56 26 -23
26 14 0 32 -7 39 -17z"/>
</g>
</svg>
