<?xml version="1.0" standalone="no"?>
<!DOCTYPE svg PUBLIC "-//W3C//DTD SVG 20010904//EN"
 "http://www.w3.org/TR/2001/REC-SVG-20010904/DTD/svg10.dtd">
<svg version="1.0" xmlns="http://www.w3.org/2000/svg"
 width="933.000000pt" height="795.000000pt" viewBox="0 0 933.000000 795.000000"
 preserveAspectRatio="xMidYMid meet">

<g transform="translate(0.000000,795.000000) scale(0.100000,-0.100000)"
fill="#000000" stroke="none">
<path d="M46 7909 c23 -19 344 -296 713 -617 431 -374 669 -587 664 -595 -18
-32 -83 -114 -104 -134 -13 -12 -37 -27 -53 -33 -29 -10 -29 -11 -9 -25 38
-27 107 -38 163 -26 28 6 56 9 60 6 5 -3 2 -21 -6 -40 -8 -19 -14 -47 -14 -62
1 -43 37 -113 81 -159 37 -38 39 -43 28 -70 -6 -16 -47 -128 -90 -248 -74
-206 -82 -222 -130 -273 -27 -29 -62 -79 -77 -110 -23 -50 -27 -70 -26 -143 2
-155 61 -251 175 -284 165 -49 298 24 324 177 6 30 12 38 33 43 72 15 178 60
248 107 79 51 208 171 276 257 l35 45 42 -28 c99 -65 174 -174 205 -293 22
-85 20 -247 -3 -354 -26 -117 -66 -214 -177 -427 -105 -201 -138 -286 -155
-394 -15 -97 -6 -155 53 -354 34 -114 52 -195 56 -247 4 -75 4 -78 -26 -108
-37 -37 -54 -37 -322 -14 -248 22 -543 24 -589 5 -49 -21 -86 -87 -132 -236
-84 -271 -112 -343 -192 -490 -107 -197 -128 -250 -115 -284 5 -14 34 -120 64
-236 30 -115 65 -239 79 -275 13 -36 31 -90 40 -121 8 -33 22 -60 31 -63 25
-10 100 39 133 87 67 98 79 245 30 369 -10 25 -16 27 -73 30 -57 3 -61 5 -64
28 -6 56 173 554 261 725 23 44 60 100 82 124 l40 43 60 -5 c86 -7 188 -42
541 -183 171 -68 325 -124 341 -124 37 0 90 21 163 65 77 47 118 53 175 25 85
-41 143 -165 166 -352 27 -220 -27 -454 -186 -803 -100 -221 -112 -269 -97
-386 11 -80 11 -94 -7 -146 -27 -80 -244 -606 -278 -673 -32 -63 -89 -136
-178 -230 -65 -68 -95 -118 -126 -209 -34 -98 -38 -94 114 -115 72 -10 164
-20 203 -23 85 -7 87 -5 106 105 10 62 10 77 -6 130 -12 38 -16 71 -12 88 7
27 82 108 119 129 15 8 19 28 23 127 8 217 45 307 240 598 108 162 126 194
139 255 9 39 25 107 35 153 12 54 43 132 89 225 38 78 83 176 99 217 35 89
122 350 156 470 l24 85 313 6 c173 4 377 12 454 18 138 12 426 46 476 56 21 5
34 -4 80 -52 130 -137 198 -255 234 -408 51 -221 134 -440 228 -607 181 -320
189 -470 46 -891 -52 -154 -123 -320 -160 -374 -16 -23 -51 -55 -77 -69 -68
-40 -81 -52 -114 -119 -29 -57 -68 -158 -68 -177 0 -10 301 -10 318 0 16 11
32 67 32 115 0 30 5 39 23 46 34 13 76 67 108 138 15 35 78 205 139 379 152
434 195 552 235 644 53 120 46 169 -50 321 -125 197 -185 398 -185 618 0 117
13 172 110 471 87 266 91 276 125 298 20 12 41 19 48 16 27 -16 671 -504 797
-604 228 -182 345 -322 462 -555 62 -122 115 -206 225 -353 47 -62 96 -140
109 -174 14 -33 54 -161 89 -283 64 -223 100 -311 185 -450 22 -36 55 -95 74
-132 36 -71 106 -156 218 -262 57 -54 71 -62 93 -57 39 10 111 81 140 139 43
88 32 147 -51 269 -50 72 -69 83 -153 92 -80 8 -76 3 -181 250 -23 54 -72 161
-110 236 -119 237 -230 521 -265 675 -7 33 -17 94 -20 135 -9 91 -24 123 -76
158 -104 70 -151 139 -265 391 -92 205 -115 284 -125 445 -5 78 -14 173 -20
211 -27 177 -133 516 -263 844 -36 90 -63 168 -59 174 8 14 73 -2 120 -29 93
-54 141 -150 152 -309 6 -89 11 -108 44 -170 103 -195 257 -335 506 -460 90
-45 338 -135 372 -135 13 0 18 -14 23 -64 9 -80 54 -210 97 -282 78 -128 172
-217 299 -283 227 -118 446 -104 517 33 14 28 16 28 71 22 122 -14 225 -96
287 -229 34 -71 65 -196 65 -258 l0 -32 24 22 c63 59 115 215 101 305 -18 120
-56 230 -113 321 l-30 49 54 52 c70 68 98 128 99 214 0 60 -22 145 -47 177 -6
8 -36 -16 -101 -80 -135 -136 -251 -185 -370 -158 -71 16 -156 71 -191 125
l-28 41 8 125 c12 178 9 275 -10 350 -58 224 -224 393 -440 447 -74 18 -85 37
-29 48 75 14 124 48 156 110 17 32 21 57 21 125 -1 47 -8 105 -16 130 l-14 45
-27 -51 c-35 -70 -87 -114 -134 -114 -79 0 -155 79 -244 254 -137 268 -200
334 -364 381 -73 22 -247 22 -355 1 -168 -32 -277 -93 -441 -244 -98 -91 -140
-115 -223 -127 -45 -7 -50 -6 -84 28 -186 177 -423 257 -762 257 -195 0 -353
-18 -697 -81 -150 -27 -284 -49 -297 -49 -20 0 -29 9 -45 44 -28 64 -93 130
-154 157 -44 19 -68 22 -152 21 -113 -2 -156 14 -176 66 -14 34 -6 187 16 342
19 129 15 243 -11 330 -27 92 -92 206 -155 271 -33 34 -59 65 -59 69 0 4 14
10 32 14 49 10 98 54 125 113 14 30 23 56 21 58 -2 2 -24 -3 -48 -12 -34 -11
-66 -14 -130 -9 -146 10 -230 47 -285 126 -15 22 -50 97 -79 167 -85 208 -131
264 -281 338 -104 52 -216 79 -292 72 -29 -3 -55 -1 -58 4 -3 4 4 23 17 40 61
82 -5 224 -127 275 -52 21 -56 18 -33 -32 24 -56 20 -102 -16 -149 -52 -68
-136 -80 -356 -49 -129 18 -201 14 -268 -16 -48 -21 -46 -22 -111 28 -44 33
-152 92 -169 92 -6 0 -6 -18 -1 -42 4 -24 8 -80 9 -124 0 -93 -10 -112 -51
-90 -13 7 -413 259 -889 561 -476 301 -872 550 -880 553 -8 3 4 -10 26 -29z"/>
</g>
</svg>
